<svg width="107" height="75" viewBox="0 0 107 75" fill="none" xmlns="http://www.w3.org/2000/svg">
<g id="Services - Identit&#195;&#169; visuelle &#38; charte graphique">
<g id="Frame" clip-path="url(#clip0_504_2)">
<g id="Calque 1">
<path id="Vector" d="M60.8526 49.8341L60.15 47.1427C69.4936 44.7003 76.2291 36.5873 76.9135 26.955C76.9524 26.4209 76.9731 25.8764 76.9731 25.3319C76.9731 12.8993 66.8596 2.7821 54.4282 2.7821C41.9969 2.7821 31.8808 12.8967 31.8808 25.3319C31.8808 25.6923 31.8886 26.0579 31.9093 26.4494C32.3578 35.6772 38.2922 43.6009 47.0265 46.6319L46.1139 49.261C41.3877 47.6198 37.2811 44.6354 34.2426 40.6321C31.1471 36.5562 29.3816 31.6973 29.1327 26.5842C29.1119 26.1512 29.1016 25.7312 29.1016 25.3345C29.099 11.3643 40.4596 0 54.4257 0C68.3918 0 79.7497 11.3643 79.7497 25.3293C79.7497 25.9412 79.729 26.5531 79.6849 27.152C78.9175 37.9719 71.3499 47.0883 60.8526 49.8315V49.8341Z" fill="#47453C"/>
<path id="Vector_2" d="M53.5182 34.1344H53.5156V31.3523L53.5182 34.1344Z" fill="#47453C"/>
<path id="Vector_3" d="M70.4413 75C63.7006 75 57.3644 72.3838 52.5863 67.6312C52.5682 67.6156 52.55 67.5975 52.5345 67.5819C47.7512 62.7956 45.1172 56.4354 45.1172 49.6733C45.1172 49.0614 45.1379 48.4469 45.182 47.8453L47.956 48.0476C47.9171 48.5817 47.8964 49.1288 47.8964 49.6733C47.8964 55.6705 50.2245 61.3125 54.453 65.5699C54.4685 65.5854 54.4867 65.601 54.5022 65.6166C58.7592 69.874 64.4214 72.2205 70.4413 72.2205C82.8726 72.2205 92.9862 62.1059 92.9862 49.6733C92.9862 40.0772 86.8988 31.5157 77.8404 28.3681C75.4682 27.5435 72.9794 27.1261 70.4387 27.1261C64.4214 27.1261 58.7618 29.4726 54.4997 33.73L52.5345 31.7621C57.3204 26.9783 63.6799 24.344 70.4387 24.344C73.2905 24.344 76.0879 24.8133 78.753 25.7415C88.9288 29.2755 95.7654 38.8949 95.7654 49.6759C95.7654 63.6408 84.4022 75.0052 70.4387 75.0052L70.4413 75Z" fill="#47453C"/>
<path id="Vector_4" d="M36.5936 75C22.6301 75 11.2695 63.6383 11.2695 49.6707C11.2695 38.1534 19.0394 28.0777 30.1667 25.166C32.2459 24.6189 34.4107 24.3389 36.5962 24.3389C43.3576 24.3389 49.7146 26.9732 54.5004 31.7569L52.5353 33.7249C48.2757 29.4675 42.6135 27.121 36.5962 27.121C34.6492 27.121 32.7229 27.3673 30.8744 27.8547C20.9683 30.445 14.0539 39.4161 14.0539 49.6682C14.0539 62.1007 24.1675 72.2153 36.5988 72.2153C42.6187 72.2153 48.2783 69.8714 52.5378 65.6114C52.5534 65.5959 52.5716 65.5803 52.5871 65.5648C56.8156 61.3125 59.1437 55.6705 59.1437 49.6707C59.1437 49.3129 59.1333 48.937 59.1152 48.5506L61.8944 48.421C61.9151 48.8488 61.9255 49.2715 61.9255 49.6707C61.9255 56.4354 59.2915 62.7956 54.5082 67.5794C54.49 67.5975 54.4745 67.6131 54.4563 67.6286C49.6783 72.3813 43.3395 74.9974 36.6014 74.9974L36.5936 75Z" fill="#47453C"/>
<path id="Vector_5" d="M54.4247 50.6585C53.5743 50.6585 52.7162 50.617 51.8762 50.5314L52.1536 47.7623C53.0377 47.8504 53.9451 47.8867 54.8369 47.8712L54.8888 50.6533C54.7358 50.6559 54.5802 50.6585 54.4247 50.6585ZM57.8935 50.4225L57.515 47.6663C58.0206 47.5963 58.5235 47.5108 59.0239 47.4071C58.9617 46.7848 58.8735 46.1625 58.7594 45.5506L61.4946 45.045C61.6761 46.0277 61.8005 47.0337 61.8653 48.0371L60.4031 48.1305L60.8516 49.8339C59.8846 50.088 58.8891 50.2877 57.8909 50.4251L57.8935 50.4225ZM48.8974 50.0517C47.9563 49.8417 47.0178 49.5747 46.1078 49.2583C45.5141 49.0509 45.133 48.4701 45.1796 47.8426L45.1874 47.7312L46.6029 47.8375L47.0229 46.6344C47.8318 46.917 48.664 47.153 49.5014 47.3396L48.8948 50.0543L48.8974 50.0517ZM48.3244 45.2783L45.5944 44.739C45.7889 43.7538 46.0455 42.7737 46.3541 41.8195L48.9985 42.6803C48.7211 43.5282 48.4955 44.402 48.3218 45.2783H48.3244ZM58.1165 42.9448C57.8521 42.0944 57.5306 41.2491 57.165 40.435L59.7031 39.2941C60.1154 40.2094 60.4731 41.1583 60.7713 42.1151L58.1165 42.9448ZM49.9836 40.1834L47.4611 39.0115C47.8837 38.104 48.3659 37.2095 48.8922 36.3564L51.2566 37.8214C50.7873 38.5811 50.3596 39.3771 49.9836 40.1834ZM55.9206 38.0573C55.4617 37.2925 54.951 36.5483 54.4014 35.8431L56.5973 34.137C57.2117 34.9278 57.7872 35.7653 58.3032 36.6235L55.9206 38.0573ZM52.8043 35.6253L50.6292 33.8907C51.2203 33.1491 51.8607 32.4309 52.5321 31.7594C52.794 31.4975 53.1466 31.3523 53.5147 31.3523C53.8828 31.3523 54.238 31.4975 54.4999 31.7568L54.6114 31.8683L53.621 32.8484L54.4999 33.7247C53.9036 34.3237 53.3332 34.9615 52.8043 35.6227V35.6253Z" fill="#47453C"/>
</g>
<g id="Calque 2">
<g id="Group">
<path id="Vector_6" d="M23.1433 2.26611H20.5508V12.6478H23.1433V2.26611Z" fill="#47453C"/>
<path id="Vector_7" d="M27.0368 6.16064H16.6562V8.75347H27.0368V6.16064Z" fill="#47453C"/>
</g>
<g id="Group_2">
<path id="Vector_8" d="M6.48709 19.1506H3.89453V29.5323H6.48709V19.1506Z" fill="#47453C"/>
<path id="Vector_9" d="M10.3806 23.0452H0V25.638H10.3806V23.0452Z" fill="#47453C"/>
</g>
<g id="Group_3">
<path id="Vector_10" d="M94.0222 7.45703H91.4297V17.8387H94.0222V7.45703Z" fill="#47453C"/>
<path id="Vector_11" d="M97.9157 11.3516H87.5352V13.9444H97.9157V11.3516Z" fill="#47453C"/>
</g>
<g id="Group_4">
<path id="Vector_12" d="M103.108 24.5696H100.516V34.9512H103.108V24.5696Z" fill="#47453C"/>
<path id="Vector_13" d="M107.002 28.4641H96.6211V31.0569H107.002V28.4641Z" fill="#47453C"/>
</g>
</g>
</g>
</g>
<defs>
<clipPath id="clip0_504_2">
<rect width="107" height="75"/>
</clipPath>
</defs>
</svg>
