<svg preserveAspectRatio="none" overflow="visible" style="display: block;" width="130.999" height="117" viewBox="0 0 130.999 117" fill="none" xmlns="http://www.w3.org/2000/svg">
<g id="Group 146">
<g id="Group">
<path id="Vector" d="M29.0919 0H26.1809V11.6058H29.0919V0Z" fill="#47453C"/>
<path id="Vector_2" d="M33.4642 4.35362H21.8086V7.25217H33.4642V4.35362Z" fill="#47453C"/>
</g>
<g id="Group_2">
<path id="Vector_3" d="M7.28328 34.0347H4.37229V45.6405H7.28328V34.0347Z" fill="#47453C"/>
<path id="Vector_4" d="M11.6556 38.3883H0V41.2868H11.6556V38.3883Z" fill="#47453C"/>
</g>
<g id="Group_3">
<path id="Vector_5" d="M126.627 73.6492H123.716V85.255H126.627V73.6492Z" fill="#47453C"/>
<path id="Vector_6" d="M130.999 78.0028H119.344V80.9013H130.999V78.0028Z" fill="#47453C"/>
</g>
<g id="Group_4">
<path id="Vector_7" d="M101.826 100.09H98.9153V111.696H101.826V100.09Z" fill="#47453C"/>
<path id="Vector_8" d="M106.199 104.443H94.543V107.342H106.199V104.443Z" fill="#47453C"/>
</g>
<path id="Vector_9" d="M19.4304 103.861C19.1131 103.861 18.7987 103.765 18.5309 103.577C18.1146 103.287 17.8672 102.812 17.8672 102.304V23.3043C17.8672 22.6493 18.2805 22.0609 18.9006 21.8406L54.5106 9.11884C54.988 8.94782 55.5207 9.02029 55.937 9.31014C56.3533 9.6 56.6007 10.0754 56.6007 10.5826V89.5855C56.6007 90.2406 56.1873 90.829 55.5673 91.0493L19.9573 103.771C19.7855 103.832 19.608 103.864 19.4304 103.864V103.861ZM20.9907 24.3971V100.096L53.4772 88.4899V12.7942L20.9907 24.4V24.3971Z" fill="#47453C"/>
<path id="Vector_10" d="M32.5359 117C32.2186 117 31.9042 116.904 31.6364 116.716C31.2201 116.426 30.9727 115.951 30.9727 115.443V103.556H34.0961V113.235L109.476 86.3275V54.1739L60.0534 71.8145L58.9996 68.8869L110.509 50.5014C110.987 50.3304 111.52 50.4029 111.936 50.6927C112.352 50.9826 112.599 51.4579 112.599 51.9652V87.4231C112.599 88.0782 112.186 88.6666 111.566 88.8869L33.0627 116.91C32.891 116.971 32.7134 117 32.5359 117Z" fill="#47453C"/>
<path id="Vector_11" d="M98.8429 40.8116C98.8342 40.7681 97.8677 36.4231 94.3192 32.0405C89.6005 26.2116 82.7423 23.0434 73.9395 22.626L74.0879 19.5188C86.2937 20.0985 93.2043 25.6521 96.8518 30.2116C100.814 35.1652 101.859 39.9681 101.899 40.171L98.8429 40.8116Z" fill="#47453C"/>
<path id="Vector_12" d="M81.1752 28.255L69.5051 22.484C68.9345 22.2029 68.5939 21.6029 68.6434 20.9681C68.6929 20.3362 69.1237 19.7971 69.7321 19.6058L82.6074 15.5884L83.5418 18.5565L74.3722 21.4174L82.5637 25.4695L81.1752 28.255Z" fill="#47453C"/>
<path id="Vector_13" d="M54.7402 46L26.1806 66.8898V59.0406L19.3281 63.5739V52.1652L26.1806 47.6319V55.4811L54.7402 34.5884V46Z" fill="#47453C"/>
</g>
</svg>
