<svg xmlns="http://www.w3.org/2000/svg" width="1200" height="630" viewBox="0 0 1200 630">
  <defs>
    <linearGradient id="grad" x1="0" y1="0" x2="1" y2="1">
      <stop offset="0%" stop-color="#222222"/>
      <stop offset="100%" stop-color="#111111"/>
    </linearGradient>
  </defs>
  <rect width="1200" height="630" fill="url(#grad)"/>
  <!-- Halo lumineux subtil -->
  <circle cx="950" cy="200" r="260" fill="#e04034" opacity="0.06"/>
  <circle cx="200" cy="500" r="220" fill="#f9f7f2" opacity="0.04"/>

  <!-- Logo Kinome complet (lu depuis logo-kinome.svg) -->
  <g transform="translate(80 75) scale(2.5)">
<g id="Calque_1" clip-path="url(#clip0_0_4)">
<path id="Vector" d="M6.21324 0.955056V14.5646L18.4007 0.238764L22.989 3.77247L13.3346 14.9466L26.9081 33.427H19.2132L9.27206 19.6742L6.21324 23.2556V33.427H0V0.955056H6.21324Z" fill="#f9f7f2"/>
<path id="Vector_2" d="M33.0974 0C34.0832 0 34.9196 0.33427 35.6066 1.00281C36.2937 1.67135 36.6342 2.50105 36.6342 3.48595C36.6342 4.47086 36.2937 5.30056 35.6066 5.9691C34.9196 6.63764 34.0832 6.97191 33.0974 6.97191C32.1117 6.97191 31.329 6.63764 30.6599 5.9691C29.9908 5.30056 29.6562 4.47086 29.6562 3.48595C29.6562 2.50105 29.9908 1.67135 30.6599 1.00281C31.329 0.33427 32.1415 0 33.0974 0ZM36.204 10.2669V33.427H29.9908V10.2669H36.204Z" fill="#f9f7f2"/>
<path id="Vector_3" d="M46.2647 12.75C47.3162 11.6994 48.6305 10.8697 50.2077 10.2669C51.7849 9.66397 53.1949 9.35955 54.4375 9.35955C57.5919 9.35955 59.8323 10.2848 61.1526 12.1292C62.4729 13.9737 63.136 16.236 63.136 18.9101V33.427H56.9228V19.1966C56.9228 17.7342 56.5703 16.612 55.8713 15.8301C55.1723 15.0481 54.1507 14.6601 52.8125 14.6601C51.9223 14.6601 50.9904 14.8929 50.0165 15.3525C49.0427 15.8121 48.1586 16.3494 47.364 16.9522V33.427H41.1507V10.2669H44.4007L46.2647 12.75Z" fill="#f9f7f2"/>
<path id="Vector_4" d="M86.9375 13.0604C84.8166 10.7862 81.8295 9.64607 77.9761 9.64607C74.1227 9.64607 71.3088 10.7444 69.1581 12.941C67.0074 15.1376 65.932 18.0864 65.932 21.7753C65.932 25.4642 66.9596 28.4726 69.0147 30.6812C71.0699 32.8957 73.9315 34 77.5938 34C81.256 34 84.3805 32.9256 86.6746 30.7767C88.9688 28.6278 90.1158 25.7089 90.1158 22.014C90.1158 18.3192 89.0584 15.3406 86.9375 13.0604ZM83.6935 22.7184V23.9779C83.6935 26.5923 81.5607 28.7114 78.926 28.7114H77.0859C74.4573 28.7114 72.3185 26.5923 72.3185 23.9779V19.6742C72.3185 17.0657 74.4573 14.9466 77.0859 14.9466H78.926C81.5607 14.9466 83.6935 17.0657 83.6935 19.6742V21.4171C83.7054 21.6141 83.7114 21.8111 83.7114 22.014C83.7114 22.2588 83.7054 22.4916 83.6935 22.7184Z" fill="#f9f7f2"/>
<path id="Vector_5" d="M113.654 12.9888C114.64 11.8725 115.955 10.9891 117.597 10.3385C119.24 9.68785 120.71 9.35955 122.018 9.35955C125.173 9.35955 127.413 10.2848 128.733 12.1292C130.054 13.9737 130.717 16.236 130.717 18.9101V33.427H124.456V19.1966C124.456 17.7342 124.103 16.612 123.404 15.8301C122.705 15.0481 121.684 14.6601 120.346 14.6601C119.455 14.6601 118.511 14.8989 117.526 15.3764C116.54 15.8539 115.644 16.3971 114.849 17C114.879 17.3164 114.915 17.6387 114.945 17.9551C114.975 18.2714 114.993 18.5938 114.993 18.9101V33.427H108.732V19.1966C108.732 17.7342 108.379 16.612 107.68 15.8301C106.981 15.0481 105.977 14.6601 104.669 14.6601C103.875 14.6601 103.068 14.8272 102.256 15.1615C101.443 15.4958 100.672 15.9196 99.9375 16.427V33.427H93.7243V10.2669H96.9743L98.5037 12.368C99.5552 11.4129 100.822 10.6728 102.303 10.1475C103.785 9.62219 105.117 9.35955 106.294 9.35955C108.11 9.35955 109.622 9.68785 110.835 10.3385C112.047 10.9891 112.985 11.8725 113.654 12.9888Z" fill="#f9f7f2"/>
<path id="Vector_6" d="M156 23.6854V21.7753C156 18.4982 155.146 15.657 153.443 13.2514C151.74 10.8459 149.07 9.64607 145.437 9.64607C141.805 9.64607 138.991 10.7623 136.906 12.9888C134.821 15.2152 133.776 18.1759 133.776 21.8708C133.776 25.5657 134.929 28.5084 137.241 30.7051C139.553 32.9017 142.713 34 146.728 34C147.714 34 148.98 33.809 150.528 33.427C152.075 33.0449 153.383 32.4421 154.465 31.6183L151.549 27.6071C150.88 27.8876 150.265 28.1145 149.715 28.2935C148.873 28.5622 147.923 28.6994 146.871 28.6994C145.055 28.6994 143.591 28.2458 142.474 27.3385C141.357 26.4312 140.658 25.2135 140.371 23.6854H156ZM142.092 16.1166C142.952 15.3346 144.022 14.9466 145.294 14.9466C146.567 14.9466 147.57 15.3227 148.401 16.0688C149.231 16.815 149.805 17.973 150.121 19.5309H140.419C140.676 18.0327 141.232 16.8985 142.092 16.1166Z" fill="#f9f7f2"/>
</g>
<defs>
<clipPath id="clip0_0_4">
<rect width="156" height="34" fill="white"/>
</clipPath>
</defs>

</g>

  <!-- Tagline principale -->
  <text x="80" y="350" font-family="Krub, Helvetica, Arial, sans-serif"
        font-size="68" font-weight="400" fill="#f9f7f2" letter-spacing="-1">
    Agence de communication
  </text>
  <text x="80" y="430" font-family="Krub, Helvetica, Arial, sans-serif"
        font-size="68" font-weight="400" fill="#f9f7f2" letter-spacing="-1">
    indépendante à <tspan fill="#e04034">Genève</tspan>.
  </text>

  <!-- Sub-tagline -->
  <text x="80" y="510" font-family="Inter, Helvetica, Arial, sans-serif"
        font-size="26" font-weight="300" fill="#f9f7f2" opacity="0.75">
    Branding · Identité visuelle · Sites internet · Communication digitale
  </text>

  <!-- URL en bas -->
  <text x="80" y="585" font-family="Inter, Helvetica, Arial, sans-serif"
        font-size="22" font-weight="500" fill="#f9f7f2" opacity="0.5">
    agence-kinome.ch
  </text>

  <!-- Bandeau accent fin en bas -->
  <rect x="0" y="610" width="1200" height="20" fill="#e04034" opacity="0.85"/>
</svg>